<svg width="56" height="27" viewBox="0 0 56 27" fill="none" xmlns="http://www.w3.org/2000/svg">
<rect y="0.337891" width="56" height="26" rx="13" fill="#F3F3F3"/>
<path d="M15.7553 21.6143C14.602 21.6142 13.4753 21.2676 12.5213 20.6194C11.5672 19.9713 10.83 19.0515 10.405 17.9793C9.98001 16.9071 9.88695 15.732 10.1379 14.6062C10.3888 13.4805 10.9721 12.4561 11.8122 11.6659C12.8421 10.6966 15.3716 8.95147 14.9879 5.11426C19.5925 8.18403 21.8949 11.2538 17.2902 15.8584C18.0576 15.8584 19.2088 15.8584 21.1274 13.9629C21.3346 14.5561 21.5111 15.1938 21.5111 15.8584C21.5111 17.385 20.9047 18.849 19.8253 19.9284C18.7459 21.0078 17.2819 21.6143 15.7553 21.6143Z" fill="#FF4545"/>
<path d="M28.0133 12.3604C28.2173 12.3604 28.3844 12.3363 28.5148 12.2881C28.6479 12.2371 28.7542 12.1706 28.8335 12.0884C28.9128 12.0062 28.9681 11.9127 28.9993 11.8079C29.0304 11.7002 29.046 11.5897 29.046 11.4764C29.046 11.3517 29.0276 11.2398 28.9908 11.1406C28.9539 11.0415 28.8944 10.9579 28.8123 10.8899C28.7301 10.8191 28.6224 10.7652 28.4893 10.7284C28.3589 10.6916 28.1974 10.6731 28.0048 10.6731H26.921V12.3604H28.0133ZM26.921 8.14014V9.80614H27.7583C27.9368 9.80614 28.0954 9.79197 28.2343 9.76364C28.3731 9.73247 28.4893 9.68431 28.5828 9.61914C28.6763 9.55397 28.7471 9.46897 28.7953 9.36414C28.8463 9.25647 28.8718 9.12756 28.8718 8.97739C28.8718 8.82439 28.8505 8.69406 28.808 8.58639C28.7683 8.47872 28.706 8.39231 28.621 8.32714C28.536 8.26197 28.4283 8.21522 28.298 8.18689C28.1677 8.15572 28.0133 8.14014 27.8348 8.14014H26.921ZM27.8348 7.17114C28.2484 7.17114 28.6012 7.21081 28.893 7.29014C29.1877 7.36664 29.4271 7.47714 29.6113 7.62164C29.7983 7.76331 29.9343 7.93614 30.0193 8.14014C30.1043 8.34414 30.1468 8.57222 30.1468 8.82439C30.1468 8.96606 30.1255 9.10206 30.083 9.23239C30.0433 9.36272 29.9796 9.48597 29.8918 9.60214C29.8068 9.71547 29.6963 9.81889 29.5603 9.91239C29.4243 10.0059 29.2628 10.0852 29.0758 10.1504C29.4951 10.2496 29.8053 10.4111 30.0065 10.6349C30.2077 10.8587 30.3083 11.1491 30.3083 11.5061C30.3083 11.7668 30.2573 12.0091 30.1553 12.2329C30.0561 12.4567 29.9102 12.6508 29.7175 12.8151C29.5248 12.9795 29.2868 13.1084 29.0035 13.2019C28.723 13.2926 28.4 13.3379 28.0345 13.3379H25.646V7.17114H27.8348ZM32.5657 8.16989V9.75514H34.6227V10.7199H32.5657V12.3391H35.2092V13.3379H31.2822V7.17114H35.2092V8.16989H32.5657ZM39.5036 8.35264C39.4639 8.41781 39.4228 8.46597 39.3803 8.49714C39.3407 8.52547 39.2883 8.53964 39.2231 8.53964C39.1608 8.53964 39.0928 8.51839 39.0191 8.47589C38.9483 8.43056 38.8647 8.38239 38.7683 8.33139C38.672 8.28039 38.5615 8.23364 38.4368 8.19114C38.3122 8.14581 38.1663 8.12314 37.9991 8.12314C37.7044 8.12314 37.4834 8.18972 37.3361 8.32289C37.1888 8.45322 37.1151 8.62464 37.1151 8.83714C37.1151 8.97314 37.1548 9.08647 37.2341 9.17714C37.3163 9.26497 37.4225 9.34147 37.5528 9.40664C37.686 9.47181 37.8362 9.52989 38.0033 9.58089C38.1705 9.63189 38.3419 9.68856 38.5176 9.75089C38.6933 9.81039 38.8647 9.88122 39.0318 9.96339C39.199 10.0456 39.3478 10.149 39.4781 10.2736C39.6113 10.3983 39.7175 10.5513 39.7968 10.7326C39.879 10.9111 39.9201 11.1293 39.9201 11.3871C39.9201 11.6676 39.8705 11.9311 39.7713 12.1776C39.675 12.4213 39.5348 12.6352 39.3506 12.8194C39.1664 13.0007 38.9383 13.1438 38.6663 13.2486C38.3972 13.3535 38.0912 13.4059 37.7483 13.4059C37.5528 13.4059 37.3573 13.3861 37.1618 13.3464C36.9692 13.3067 36.7822 13.2515 36.6008 13.1806C36.4223 13.1098 36.2538 13.0248 36.0951 12.9256C35.9364 12.8265 35.7976 12.716 35.6786 12.5941L36.0526 11.9906C36.0838 11.9453 36.1248 11.9085 36.1758 11.8801C36.2268 11.849 36.2807 11.8334 36.3373 11.8334C36.4138 11.8334 36.4946 11.8617 36.5796 11.9184C36.6646 11.9751 36.7623 12.0374 36.8728 12.1054C36.9833 12.1734 37.1108 12.2357 37.2553 12.2924C37.4027 12.3491 37.5783 12.3774 37.7823 12.3774C38.0798 12.3774 38.3093 12.3094 38.4708 12.1734C38.6352 12.0374 38.7173 11.8348 38.7173 11.5656C38.7173 11.4098 38.6763 11.2837 38.5941 11.1874C38.5148 11.0911 38.4099 11.0103 38.2796 10.9451C38.1493 10.88 38.0005 10.8247 37.8333 10.7794C37.6662 10.7312 37.4948 10.6788 37.3191 10.6221C37.1434 10.5655 36.972 10.4975 36.8048 10.4181C36.6377 10.3388 36.4889 10.234 36.3586 10.1036C36.2283 9.97331 36.122 9.81181 36.0398 9.61914C35.9605 9.42647 35.9208 9.18706 35.9208 8.90089C35.9208 8.67139 35.9662 8.44897 36.0568 8.23364C36.1475 8.01831 36.2807 7.82706 36.4563 7.65989C36.632 7.49272 36.8473 7.35814 37.1023 7.25614C37.3602 7.15414 37.6548 7.10314 37.9863 7.10314C38.3575 7.10314 38.7003 7.16122 39.0148 7.27739C39.3322 7.39072 39.5999 7.54939 39.8181 7.75339L39.5036 8.35264ZM45.2095 8.19964H43.4075V13.3379H42.1282V8.19964H40.3262V7.17114H45.2095V8.19964ZM27.814 16.8189C27.786 16.8649 27.757 16.8989 27.727 16.9209C27.699 16.9409 27.662 16.9509 27.616 16.9509C27.572 16.9509 27.524 16.9359 27.472 16.9059C27.422 16.8739 27.363 16.8399 27.295 16.8039C27.227 16.7679 27.149 16.7349 27.061 16.7049C26.973 16.6729 26.87 16.6569 26.752 16.6569C26.544 16.6569 26.388 16.7039 26.284 16.7979C26.18 16.8899 26.128 17.0109 26.128 17.1609C26.128 17.2569 26.156 17.3369 26.212 17.4009C26.27 17.4629 26.345 17.5169 26.437 17.5629C26.531 17.6089 26.637 17.6499 26.755 17.6859C26.873 17.7219 26.994 17.7619 27.118 17.8059C27.242 17.8479 27.363 17.8979 27.481 17.9559C27.599 18.0139 27.704 18.0869 27.796 18.1749C27.89 18.2629 27.965 18.3709 28.021 18.4989C28.079 18.6249 28.108 18.7789 28.108 18.9609C28.108 19.1589 28.073 19.3449 28.003 19.5189C27.935 19.6909 27.836 19.8419 27.706 19.9719C27.576 20.0999 27.415 20.2009 27.223 20.2749C27.033 20.3489 26.817 20.3859 26.575 20.3859C26.437 20.3859 26.299 20.3719 26.161 20.3439C26.025 20.3159 25.893 20.2769 25.765 20.2269C25.639 20.1769 25.52 20.1169 25.408 20.0469C25.296 19.9769 25.198 19.8989 25.114 19.8129L25.378 19.3869C25.4 19.3549 25.429 19.3289 25.465 19.3089C25.501 19.2869 25.539 19.2759 25.579 19.2759C25.633 19.2759 25.69 19.2959 25.75 19.3359C25.81 19.3759 25.879 19.4199 25.957 19.4679C26.035 19.5159 26.125 19.5599 26.227 19.5999C26.331 19.6399 26.455 19.6599 26.599 19.6599C26.809 19.6599 26.971 19.6119 27.085 19.5159C27.201 19.4199 27.259 19.2769 27.259 19.0869C27.259 18.9769 27.23 18.8879 27.172 18.8199C27.116 18.7519 27.042 18.6949 26.95 18.6489C26.858 18.6029 26.753 18.5639 26.635 18.5319C26.517 18.4979 26.396 18.4609 26.272 18.4209C26.148 18.3809 26.027 18.3329 25.909 18.2769C25.791 18.2209 25.686 18.1469 25.594 18.0549C25.502 17.9629 25.427 17.8489 25.369 17.7129C25.313 17.5769 25.285 17.4079 25.285 17.2059C25.285 17.0439 25.317 16.8869 25.381 16.7349C25.445 16.5829 25.539 16.4479 25.663 16.3299C25.787 16.2119 25.939 16.1169 26.119 16.0449C26.301 15.9729 26.509 15.9369 26.743 15.9369C27.005 15.9369 27.247 15.9779 27.469 16.0599C27.693 16.1399 27.882 16.2519 28.036 16.3959L27.814 16.8189ZM29.6667 16.6899V17.8089H31.1187V18.4899H29.6667V19.6329H31.5327V20.3379H28.7607V15.9849H31.5327V16.6899H29.6667ZM34.789 19.6059V20.3379H32.206V15.9849H33.106V19.6059H34.789ZM37.9238 19.6059V20.3379H35.3408V15.9849H36.2408V19.6059H37.9238ZM39.3815 16.6899V17.8089H40.8335V18.4899H39.3815V19.6329H41.2475V20.3379H38.4755V15.9849H41.2475V16.6899H39.3815ZM43.2828 18.0459C43.4288 18.0459 43.5548 18.0279 43.6608 17.9919C43.7668 17.9539 43.8538 17.9029 43.9218 17.8389C43.9898 17.7729 44.0398 17.6959 44.0718 17.6079C44.1038 17.5199 44.1198 17.4239 44.1198 17.3199C44.1198 17.1139 44.0508 16.9539 43.9128 16.8399C43.7768 16.7259 43.5688 16.6689 43.2888 16.6689H42.8208V18.0459H43.2828ZM45.3918 20.3379H44.5788C44.4268 20.3379 44.3168 20.2799 44.2488 20.1639L43.4208 18.8289C43.3868 18.7769 43.3488 18.7389 43.3068 18.7149C43.2668 18.6909 43.2068 18.6789 43.1268 18.6789H42.8208V20.3379H41.9208V15.9849H43.2888C43.5928 15.9849 43.8528 16.0169 44.0688 16.0809C44.2848 16.1429 44.4618 16.2299 44.5998 16.3419C44.7378 16.4539 44.8388 16.5879 44.9028 16.7439C44.9668 16.8979 44.9988 17.0679 44.9988 17.2539C44.9988 17.3979 44.9778 17.5349 44.9358 17.6649C44.8958 17.7929 44.8368 17.9099 44.7588 18.0159C44.6808 18.1219 44.5848 18.2159 44.4708 18.2979C44.3568 18.3799 44.2268 18.4459 44.0808 18.4959C44.1388 18.5279 44.1928 18.5669 44.2428 18.6129C44.2928 18.6569 44.3378 18.7099 44.3778 18.7719L45.3918 20.3379Z" fill="#FF4545"/>
</svg>
