<svg width="21" height="21" viewBox="0 0 21 21" fill="none" xmlns="http://www.w3.org/2000/svg">
<path fill-rule="evenodd" clip-rule="evenodd" d="M3.32501 5.47205H17.9251C18.9289 5.47205 19.7501 6.2933 19.7501 7.29706V18.2471C19.7501 19.2509 18.9289 20.0721 17.9251 20.0721H3.32501C2.32126 20.0721 1.5 19.2509 1.5 18.2471L1.50913 7.29706C1.50913 6.2933 2.32126 5.47205 3.32501 5.47205ZM11.1087 13.3835L17.5601 9.35026C17.7882 9.20426 17.9251 8.95788 17.9251 8.69326C17.9251 8.08188 17.259 7.71687 16.7389 8.03625L10.6251 11.8597L4.51128 8.03625C3.99115 7.71687 3.32503 8.08188 3.32503 8.69326C3.32503 8.95788 3.4619 9.20426 3.69003 9.35026L10.1414 13.3835C10.4334 13.566 10.8167 13.566 11.1087 13.3835Z" fill="white"/>
</svg>
