<svg width="18" height="17" viewBox="0 0 18 17" fill="none" xmlns="http://www.w3.org/2000/svg">
<path fill-rule="evenodd" clip-rule="evenodd" d="M7.59375 1.75C4.64248 1.75 2.25 4.14248 2.25 7.09375C2.25 10.045 4.64248 12.4375 7.59375 12.4375C9.06959 12.4375 10.4045 11.8402 11.3724 10.8724C12.3402 9.9045 12.9375 8.56959 12.9375 7.09375C12.9375 4.14248 10.545 1.75 7.59375 1.75ZM0.75 7.09375C0.75 3.31405 3.81405 0.25 7.59375 0.25C11.3734 0.25 14.4375 3.31405 14.4375 7.09375C14.4375 8.7131 13.8743 10.202 12.9343 11.3737L17.0303 15.4697C17.3232 15.7626 17.3232 16.2374 17.0303 16.5303C16.7374 16.8232 16.2626 16.8232 15.9697 16.5303L11.8737 12.4343C10.702 13.3743 9.2131 13.9375 7.59375 13.9375C3.81405 13.9375 0.75 10.8734 0.75 7.09375Z" fill="#17181A"/>
</svg>
