<svg width="263" height="58" viewBox="0 0 263 58" fill="none" xmlns="http://www.w3.org/2000/svg">
<path d="M10.6192 55.0631C8.43346 54.0107 6.57152 52.594 5.11436 50.7726C3.61672 48.9916 2.48336 46.8868 1.7143 44.5391C0.904768 42.1915 0.5 39.7629 0.5 37.2128C0.5 34.6628 0.904768 32.2342 1.67383 29.8865C2.48336 27.5389 3.61672 25.4746 5.07388 23.6531C6.53105 21.8721 8.39298 20.415 10.5787 19.3626C12.7645 18.3102 15.2336 17.784 17.986 17.784C19.767 17.784 21.386 18.1078 22.7623 18.6745C24.1789 19.2816 25.1909 19.8888 25.879 20.4554V0.783691H36.9696V39.7629C36.9696 42.3939 37.4553 44.6606 38.4268 46.563C39.3982 48.4654 40.9363 50.2059 43.0007 51.7845L33.3267 56.6822C33.0029 56.4798 32.6791 56.1965 32.3148 55.7917C31.9505 55.4274 31.5457 55.0226 31.1814 54.5774C30.7767 54.1322 30.4124 53.6869 30.0886 53.2417C29.7647 52.7964 29.4814 52.3917 29.3195 52.0274C29.0362 52.3512 28.6314 52.7559 28.0647 53.2821C27.498 53.8083 26.729 54.2941 25.7575 54.7798C24.8266 55.2655 23.6932 55.6703 22.398 56.0346C21.1027 56.3989 19.6455 56.6012 17.986 56.6012C15.274 56.6417 12.805 56.1155 10.6192 55.0631ZM15.7598 28.5508C14.8693 29.1175 14.1812 29.8461 13.574 30.7365C13.0073 31.627 12.5621 32.639 12.2383 33.7723C11.9145 34.9057 11.7526 36.039 11.7526 37.2128C11.7526 38.3867 11.9145 39.52 12.2383 40.6534C12.5621 41.7867 13.0073 42.7986 13.574 43.6891C14.1407 44.5796 14.8693 45.3082 15.7598 45.8749C16.6503 46.4416 17.6622 46.7249 18.7955 46.7249C19.9694 46.7249 20.9813 46.4416 21.8718 45.8749C22.7623 45.3082 23.4908 44.5796 24.098 43.6891C24.6647 42.7986 25.1099 41.7867 25.4337 40.6534C25.7575 39.52 25.9194 38.3867 25.9194 37.2128C25.9194 36.039 25.7575 34.9057 25.4337 33.7723C25.1099 32.639 24.6647 31.627 24.098 30.7365C23.5313 29.8461 22.7623 29.1175 21.8718 28.5508C20.9813 27.9841 19.9289 27.7008 18.7955 27.7008C17.6217 27.7413 16.6098 27.9841 15.7598 28.5508Z" fill="#17181A"/>
<path d="M80.9681 46.5631C81.9395 48.4655 83.4776 50.206 85.5419 51.7846L75.868 56.6823C75.3822 56.3585 74.8156 55.7919 74.1679 55.0228C73.5203 54.2133 72.9536 53.5656 72.5489 52.999C72.1441 52.4323 71.9012 52.1489 71.8608 52.068C71.8203 52.0275 71.4965 52.2299 70.8893 52.7561C70.2822 53.2418 69.4726 53.8085 68.4202 54.3752C67.4083 54.9418 66.194 55.5085 64.8583 55.9942C63.5225 56.48 62.1059 56.7633 60.6082 56.7633C58.6653 56.7633 56.8843 56.4395 55.3057 55.7918C53.7271 55.1442 52.3914 54.2942 51.2581 53.2013C50.1652 52.1085 49.2747 50.8537 48.6675 49.356C48.0604 47.8584 47.7366 46.2798 47.7366 44.6202V18.9984H58.8272V41.0988C58.8272 43.0012 59.151 44.3774 59.7987 45.1869C60.4463 45.9965 61.3368 46.4012 62.5511 46.4012C63.7249 46.4012 64.7368 46.0774 65.6678 45.4298C66.5988 44.7822 67.2464 44.1345 67.6512 43.5678C68.0559 43.0012 68.2583 42.6369 68.3393 42.5559V18.9984H79.4299V39.763C79.4704 42.394 79.9966 44.6607 80.9681 46.5631Z" fill="#17181A"/>
<path d="M113.916 19.4031C116.142 20.4555 118.085 21.8721 119.704 23.6936C121.323 25.4746 122.578 27.5794 123.509 29.927C124.44 32.2747 124.885 34.7033 124.885 37.2533C124.885 39.8034 124.399 42.232 123.509 44.5796C122.578 46.9273 121.323 48.9916 119.704 50.8131C118.085 52.5941 116.183 54.0512 113.916 55.1036C111.649 56.156 109.221 56.6822 106.59 56.6822C103.959 56.6822 101.49 56.156 99.2633 55.1036C97.0371 54.0512 95.0942 52.6345 93.4751 50.8131C91.856 49.0321 90.6013 46.9273 89.6703 44.5796C88.7393 42.232 88.2941 39.8034 88.2941 37.2533C88.2941 34.7033 88.7393 32.2747 89.6703 29.927C90.6013 27.5794 91.856 25.5151 93.4751 23.6936C95.0942 21.9126 96.9966 20.4555 99.2633 19.4031C101.49 18.3507 103.959 17.8245 106.59 17.8245C109.221 17.8245 111.649 18.3507 113.916 19.4031ZM99.9919 40.6939C100.316 41.8272 100.761 42.8391 101.328 43.7296C101.894 44.6201 102.623 45.3487 103.513 45.9154C104.404 46.4821 105.416 46.7654 106.549 46.7654C107.723 46.7654 108.735 46.4821 109.585 45.9154C110.475 45.3487 111.204 44.6201 111.811 43.7296C112.418 42.8391 112.864 41.8272 113.147 40.6939C113.43 39.5605 113.592 38.4272 113.592 37.2533C113.592 36.0795 113.43 34.9462 113.147 33.8128C112.864 32.6795 112.418 31.6675 111.811 30.777C111.204 29.8866 110.475 29.158 109.585 28.5913C108.694 28.0246 107.682 27.7413 106.549 27.7413C105.375 27.7413 104.363 28.0246 103.513 28.5913C102.623 29.158 101.935 29.8866 101.328 30.777C100.761 31.6675 100.316 32.6795 99.9919 33.8128C99.6681 34.9462 99.5062 36.0795 99.5062 37.2533C99.5466 38.3867 99.7085 39.5605 99.9919 40.6939Z" fill="#17181A"/>
<path d="M143.505 54.1729C142.128 55.5491 140.469 56.2372 138.526 56.2372C136.583 56.2372 134.924 55.5491 133.547 54.1729C132.171 52.7967 131.483 51.1371 131.483 49.1942C131.483 47.2513 132.171 45.5918 133.547 44.2156C134.924 42.8394 136.583 42.1512 138.526 42.1512C140.469 42.1512 142.128 42.8394 143.505 44.2156C144.881 45.5918 145.569 47.2513 145.569 49.1942C145.569 51.1371 144.881 52.7967 143.505 54.1729Z" fill="#17181A"/>
<path d="M163.614 19.1838H164.776V27.6083C164.776 29.9323 164.195 31.6753 162.975 32.9535C161.755 34.1736 160.244 34.8127 158.327 34.8127C156.41 34.8127 154.899 34.1736 153.679 32.9535C152.459 31.7334 151.878 30.0485 151.878 27.8988V19.2419H153.098V27.8407C153.098 29.6999 153.563 31.0943 154.55 32.1401C155.538 33.1859 156.758 33.7088 158.327 33.7088C159.896 33.7088 161.174 33.1859 162.103 32.1401C163.091 31.0943 163.556 29.5837 163.556 27.6664V19.1838H163.614Z" fill="#99C63C"/>
<path d="M182.09 19.1838V34.5803H181.102L169.424 21.1592V34.5803H168.204V19.1838H169.25L180.87 32.663V19.1838H182.09Z" fill="#99C63C"/>
<path d="M187.028 19.1838V33.5926H194.639V34.5803H185.866V19.1838H187.028Z" fill="#99C63C"/>
<path d="M197.777 19.1838H196.615V34.5803H197.777V19.1838Z" fill="#99C63C"/>
<path d="M208.583 26.3301L214.451 19.1838H215.671V34.5803H214.451V20.9268L208.583 28.1312L202.715 20.9268V34.5803H201.553V19.1838H202.715L208.583 26.3301Z" fill="#99C63C"/>
<path d="M220.552 19.1838H219.39V34.5803H220.552V19.1838Z" fill="#99C63C"/>
<path d="M235.367 19.1838V20.1715H229.615V34.5803H228.395V20.1715H222.643V19.1838H235.367Z" fill="#99C63C"/>
<path d="M245.883 19.1838V20.1715H238.679V26.3301H245.709V27.3178H238.679V33.5926H246.058V34.5803H237.459V19.1838H245.883Z" fill="#99C63C"/>
<path d="M248.73 19.1838H254.134C256.864 19.1838 258.956 19.881 260.35 21.3335C261.803 22.786 262.5 24.5871 262.5 26.853C262.5 29.0608 261.803 30.92 260.35 32.3725C258.956 33.825 256.922 34.5222 254.308 34.5222H248.73V19.1838ZM249.95 20.1715V33.5926H254.308C256.283 33.5926 257.968 32.9535 259.305 31.7334C260.641 30.5133 261.28 28.8865 261.28 26.853C261.28 24.8776 260.641 23.2508 259.305 22.0307C258.026 20.8106 256.283 20.1715 254.25 20.1715H249.95Z" fill="#99C63C"/>
<path d="M151.878 41.3824H157.314C160.061 41.3824 162.165 42.0839 163.568 43.5452C165.029 45.0065 165.731 46.8185 165.731 49.0981C165.731 51.3193 165.029 53.1898 163.568 54.6511C162.165 56.1124 160.12 56.8138 157.489 56.8138H151.878V41.3824ZM153.047 42.3761V55.8786H157.431C159.418 55.8786 161.113 55.2356 162.458 54.0081C163.802 52.7806 164.445 51.144 164.445 49.0981C164.445 47.1108 163.802 45.4741 162.458 44.2466C161.172 43.0191 159.418 42.3761 157.372 42.3761H153.047Z" fill="#99C63C"/>
<path d="M170.056 41.3762H168.887V56.866H170.056V41.3762Z" fill="#99C63C"/>
<path d="M181.104 42.1942V43.5386C179.759 42.7203 178.59 42.3696 177.655 42.3696C176.72 42.3696 175.96 42.6618 175.317 43.2464C174.674 43.8309 174.382 44.5323 174.382 45.3506C174.382 45.9352 174.557 46.4612 174.908 46.9873C175.259 47.4549 176.018 47.9225 177.246 48.3901C178.415 48.8578 179.292 49.2085 179.818 49.5007C180.344 49.793 180.812 50.2022 181.221 50.7867C181.571 51.3712 181.805 52.0726 181.805 52.9494C181.805 54.1185 181.396 55.1706 180.519 55.9889C179.642 56.8073 178.59 57.2164 177.304 57.2164C176.018 57.2164 174.674 56.7488 173.33 55.872V54.4692C174.849 55.5798 176.135 56.1058 177.246 56.1058C178.181 56.1058 178.941 55.8136 179.584 55.2291C180.227 54.6445 180.519 53.8847 180.519 53.0663C180.519 52.4233 180.344 51.8388 179.935 51.3128C179.526 50.7867 178.766 50.3191 177.538 49.8515C176.369 49.3838 175.492 49.0331 174.966 48.7409C174.44 48.4486 174.031 48.0394 173.68 47.5134C173.33 46.9873 173.154 46.3443 173.154 45.526C173.154 44.4154 173.563 43.4217 174.44 42.6034C175.317 41.7851 176.369 41.3759 177.597 41.3759C178.766 41.2005 179.935 41.4928 181.104 42.1942Z" fill="#99C63C"/>
<path d="M190.573 41.3762C192.034 41.3762 193.203 41.7854 194.08 42.6037C194.957 43.4221 195.425 44.5326 195.425 45.8186C195.425 47.163 194.957 48.2151 194.022 49.0335C193.086 49.8518 191.917 50.261 190.398 50.261H187.533V56.866H184.552V41.3762H190.573ZM189.872 48.0398C190.69 48.0398 191.274 47.8644 191.742 47.5137C192.21 47.163 192.385 46.5785 192.385 45.877C192.385 44.4742 191.45 43.7143 189.638 43.7143H187.592V48.0398H189.872Z" fill="#99C63C"/>
<path d="M201.094 41.3762V54.528H208.576V56.866H198.113V41.3762H201.094Z" fill="#99C63C"/>
<path d="M220.851 41.3762L227.69 56.866H224.534L222.955 53.1251H216.058L214.538 56.866H211.382L217.753 41.3762H220.851ZM216.993 50.8455H221.962L219.331 44.708L216.993 50.8455Z" fill="#99C63C"/>
<path d="M229.619 41.3762L233.36 46.5785L237.101 41.3762H240.666L234.821 49.2088V56.866H231.84V49.1504L225.937 41.3762H229.619Z" fill="#99C63C"/>
</svg>
