<svg width="56" height="27" viewBox="0 0 56 27" fill="none" xmlns="http://www.w3.org/2000/svg">
<rect y="0.337891" width="56" height="26" rx="13" fill="#99C63C"/>
<path d="M21.9092 9.43036V18.3379H20.9576C20.8144 18.3379 20.6937 18.3154 20.5954 18.2704C20.4972 18.2213 20.401 18.1394 20.3069 18.0248L15.8685 12.377C15.8808 12.5203 15.889 12.6615 15.893 12.8006C15.9012 12.9398 15.9053 13.0687 15.9053 13.1874V18.3379H14.2785V9.43036H15.2485C15.3262 9.43036 15.3917 9.43445 15.4449 9.44264C15.5022 9.44673 15.5534 9.46106 15.5984 9.48561C15.6434 9.50607 15.6864 9.53472 15.7273 9.57156C15.7682 9.60839 15.8132 9.6575 15.8623 9.71889L20.3315 15.3912C20.3151 15.2357 20.3028 15.0863 20.2946 14.9431C20.2864 14.7958 20.2823 14.6566 20.2823 14.5256V9.43036H21.9092ZM25.6286 10.873V13.1628H28.5998V14.5563H25.6286V16.8953H29.4469V18.3379H23.7746V9.43036H29.4469V10.873H25.6286ZM42.8079 9.43036L40.0454 18.3379H38.3817L36.5585 12.5121C36.5298 12.4302 36.5012 12.3402 36.4725 12.242C36.4439 12.1438 36.4173 12.0394 36.3927 11.9289C36.3682 12.0394 36.3416 12.1438 36.3129 12.242C36.2843 12.3402 36.2556 12.4302 36.227 12.5121L34.3853 18.3379H32.7155L29.9592 9.43036H31.5062C31.6658 9.43036 31.7988 9.4672 31.9052 9.54086C32.0157 9.61453 32.0873 9.71275 32.12 9.83553L33.5013 14.8571C33.534 14.9963 33.5668 15.1477 33.5995 15.3114C33.6364 15.471 33.6711 15.6409 33.7039 15.8209C33.7407 15.6368 33.7796 15.4649 33.8205 15.3053C33.8614 15.1457 33.9065 14.9963 33.9556 14.8571L35.564 9.83553C35.5967 9.73321 35.6663 9.64113 35.7727 9.55928C35.8832 9.47333 36.0162 9.43036 36.1717 9.43036H36.7119C36.8715 9.43036 37.0005 9.46924 37.0987 9.547C37.201 9.62067 37.2767 9.71684 37.3258 9.83553L38.9281 14.8571C38.9772 14.9881 39.0222 15.1313 39.0631 15.2869C39.1041 15.4383 39.1429 15.5999 39.1798 15.7718C39.2125 15.5999 39.2432 15.4383 39.2719 15.2869C39.3046 15.1313 39.3373 14.9881 39.3701 14.8571L40.7513 9.83553C40.78 9.72912 40.8496 9.63499 40.9601 9.55314C41.0705 9.47129 41.2036 9.43036 41.3591 9.43036H42.8079Z" fill="white"/>
</svg>
