<svg width="21" height="21" viewBox="0 0 21 21" fill="none" xmlns="http://www.w3.org/2000/svg">
<path d="M13.9307 13.139L13.4152 13.9123C13.3123 14.0666 13.1762 14.1983 12.9969 14.2457C12.4094 14.4009 10.8499 14.471 8.47548 12.0966C6.10109 9.72225 6.17117 8.16266 6.32639 7.57522C6.37377 7.39589 6.50547 7.2598 6.65981 7.15691L7.43306 6.64141C8.00876 6.25761 8.16433 5.47978 7.78053 4.90408L6.32012 2.71346C5.98512 2.21097 5.33931 2.01899 4.78421 2.25688L4.12542 2.53923C3.62496 2.75371 3.21672 3.13864 2.97322 3.62564C2.76978 4.03251 2.6121 4.46097 2.59074 4.91537C2.52342 6.34735 2.83741 9.87532 6.76711 13.805C10.6968 17.7347 14.2247 18.0487 15.6567 17.9814C16.1111 17.96 16.5396 17.8023 16.9465 17.5989C17.4335 17.3554 17.8184 16.9471 18.0329 16.4467L18.3152 15.7879C18.5531 15.2328 18.3611 14.587 17.8586 14.252L15.668 12.7916C15.0923 12.4078 14.3145 12.5633 13.9307 13.139Z" fill="white"/>
</svg>
