<svg width="15" height="14" viewBox="0 0 15 14" fill="none" xmlns="http://www.w3.org/2000/svg">
<path d="M5.45133 5.97489C6.18115 7.25704 7.24296 8.31885 8.52511 9.04867L9.21267 8.08578C9.32323 7.93095 9.48672 7.82202 9.67218 7.77959C9.85765 7.73717 10.0522 7.76419 10.2191 7.85556C11.3191 8.45672 12.5339 8.81827 13.7837 8.91644C13.9787 8.9319 14.1608 9.0203 14.2935 9.16403C14.4263 9.30775 14.5 9.49623 14.5 9.69189V13.1623C14.5 13.3549 14.4286 13.5406 14.2996 13.6836C14.1706 13.8266 13.9931 13.9166 13.8016 13.9362C13.3893 13.979 12.974 14 12.5556 14C5.89778 14 0.5 8.60222 0.5 1.94444C0.5 1.526 0.521 1.11067 0.563778 0.698444C0.58342 0.506876 0.673432 0.329405 0.816392 0.200382C0.959352 0.0713589 1.14509 -4.15005e-05 1.33767 1.80968e-08H4.80811C5.00377 -2.45144e-05 5.19225 0.0736956 5.33597 0.206462C5.4797 0.339228 5.5681 0.521285 5.58356 0.716333C5.68173 1.96606 6.04328 3.18086 6.64444 4.28089C6.73581 4.44777 6.76283 4.64235 6.72041 4.82782C6.67798 5.01328 6.56905 5.17677 6.41422 5.28733L5.45133 5.97489ZM3.48978 5.46389L4.96756 4.40844C4.54816 3.50318 4.26083 2.54243 4.11433 1.55556H2.06333C2.05867 1.68467 2.05633 1.81456 2.05633 1.94444C2.05556 7.74356 6.75644 12.4444 12.5556 12.4444C12.6854 12.4444 12.8153 12.4421 12.9444 12.4367V10.3857C11.9576 10.2392 10.9968 9.95184 10.0916 9.53244L9.03611 11.0102C8.61118 10.8451 8.19845 10.6502 7.801 10.4269L7.75589 10.4012C6.23034 9.533 4.967 8.26966 4.09878 6.74411L4.07311 6.699C3.84982 6.30155 3.65489 5.88882 3.48978 5.46389Z" fill="#17181A"/>
</svg>
