<svg width="21" height="21" viewBox="0 0 21 21" fill="none" xmlns="http://www.w3.org/2000/svg">
<path fill-rule="evenodd" clip-rule="evenodd" d="M11.474 18.6135C13.5897 17.1698 18.4166 13.377 18.4166 8.82212C18.4166 4.44987 14.8722 0.905457 10.5 0.905457C6.12773 0.905457 2.58331 4.44987 2.58331 8.82212C2.58331 13.377 7.41023 17.1698 9.52594 18.6135C10.1176 19.0172 10.8824 19.0172 11.474 18.6135ZM10.5 11.3221C11.8807 11.3221 13 10.2028 13 8.82212C13 7.44141 11.8807 6.32212 10.5 6.32212C9.11927 6.32212 7.99998 7.44141 7.99998 8.82212C7.99998 10.2028 9.11927 11.3221 10.5 11.3221Z" fill="white"/>
</svg>
