<svg width="18" height="16" viewBox="0 0 18 16" fill="none" xmlns="http://www.w3.org/2000/svg">
<path fill-rule="evenodd" clip-rule="evenodd" d="M2.86365 1.75886C2.75536 1.75073 2.61016 1.75025 2.36174 1.75025H1.50049C1.08627 1.75025 0.750488 1.41446 0.750488 1.00025C0.750488 0.586033 1.08627 0.250246 1.50049 0.250246H2.36174C2.3695 0.250246 2.37723 0.250246 2.38495 0.250245C2.60224 0.250229 2.80459 0.250214 2.97583 0.263056C3.16257 0.277061 3.36484 0.309015 3.57067 0.40018C3.86911 0.532369 4.12463 0.745391 4.30837 1.01518C4.43508 1.20123 4.50291 1.39446 4.55029 1.57563C4.59373 1.74176 4.63013 1.9408 4.66921 2.15455L4.76943 2.70242L14.3996 2.97343C14.5641 2.97803 14.691 2.98157 14.8052 2.99429C16.1116 3.13992 17.1322 4.18972 17.241 5.49971C17.2506 5.61413 17.2505 5.74107 17.2505 5.90568V5.96501C17.2505 6.12062 17.2505 6.24091 17.2418 6.35062C17.1421 7.60271 16.2067 8.62813 14.969 8.84213C14.8606 8.86088 14.7408 8.87187 14.5858 8.8861L8.11335 9.4816C7.62349 9.52668 7.21298 9.56446 6.87316 9.569C6.51748 9.57375 6.18016 9.54433 5.8472 9.42176C5.33363 9.23269 4.88814 8.89469 4.56776 8.45101C4.36005 8.16337 4.24087 7.84643 4.14966 7.50261C4.06251 7.17412 3.98834 6.76861 3.89983 6.2847L3.19787 2.4473C3.15317 2.20293 3.12656 2.06019 3.09909 1.95513C3.08228 1.89087 3.07087 1.86477 3.06747 1.85791C3.04168 1.82067 3.00625 1.79113 2.96497 1.77246C2.95761 1.77035 2.92989 1.76382 2.86365 1.75886ZM2.96709 1.77316L2.96497 1.77246L2.96709 1.77316ZM3.06641 1.85596L3.06747 1.85791L3.06641 1.85596ZM5.04535 4.21078L5.37016 5.98643C5.46522 6.50608 5.52927 6.85321 5.59951 7.11798C5.66738 7.37381 5.72696 7.4941 5.78384 7.57286C5.92947 7.77454 6.13196 7.92817 6.36541 8.01411C6.45658 8.04768 6.58847 8.07267 6.85313 8.06913C7.12703 8.06547 7.47858 8.03367 8.00464 7.98527L14.4198 7.39504C14.6167 7.37692 14.6718 7.37126 14.7135 7.36406C15.276 7.26679 15.7012 6.80069 15.7465 6.23155C15.7499 6.18942 15.7505 6.13399 15.7505 5.9363C15.7505 5.72681 15.7498 5.66775 15.7462 5.62388C15.6967 5.02844 15.2328 4.55125 14.639 4.48506C14.5952 4.48018 14.5362 4.47787 14.3268 4.47198L5.04535 4.21078Z" fill="#17181A"/>
<path fill-rule="evenodd" clip-rule="evenodd" d="M7.00049 12.7502C6.58627 12.7502 6.25049 13.086 6.25049 13.5002C6.25049 13.9145 6.58627 14.2502 7.00049 14.2502C7.4147 14.2502 7.75049 13.9145 7.75049 13.5002C7.75049 13.086 7.4147 12.7502 7.00049 12.7502ZM4.75049 13.5002C4.75049 12.2576 5.75785 11.2502 7.00049 11.2502C8.24313 11.2502 9.25049 12.2576 9.25049 13.5002C9.25049 14.7429 8.24313 15.7502 7.00049 15.7502C5.75785 15.7502 4.75049 14.7429 4.75049 13.5002Z" fill="#17181A"/>
<path fill-rule="evenodd" clip-rule="evenodd" d="M14.0005 12.7502C13.5863 12.7502 13.2505 13.086 13.2505 13.5002C13.2505 13.9145 13.5863 14.2502 14.0005 14.2502C14.4147 14.2502 14.7505 13.9145 14.7505 13.5002C14.7505 13.086 14.4147 12.7502 14.0005 12.7502ZM11.7505 13.5002C11.7505 12.2576 12.7578 11.2502 14.0005 11.2502C15.2431 11.2502 16.2505 12.2576 16.2505 13.5002C16.2505 14.7429 15.2431 15.7502 14.0005 15.7502C12.7578 15.7502 11.7505 14.7429 11.7505 13.5002Z" fill="#17181A"/>
</svg>
