<svg width="56" height="27" viewBox="0 0 56 27" fill="none" xmlns="http://www.w3.org/2000/svg">
<rect y="0.337891" width="56" height="26" rx="13" fill="#2268B4"/>
<path d="M29.2423 10.0131H28.0763V13.3379H27.2485V10.0131H26.0825V9.34764H29.2423V10.0131ZM30.5678 9.99389V11.0196H31.8988V11.6439H30.5678V12.6916H32.2783V13.3379H29.7373V9.34764H32.2783V9.99389H30.5678ZM35.002 11.8226L34.5703 10.6016C34.5446 10.5375 34.5171 10.4623 34.4878 10.3761C34.4603 10.29 34.4337 10.1965 34.408 10.0956C34.3824 10.1983 34.3549 10.2936 34.3255 10.3816C34.298 10.4678 34.2715 10.543 34.2458 10.6071L33.8168 11.8226H35.002ZM36.388 13.3379H35.7473C35.6758 13.3379 35.6171 13.3214 35.5713 13.2884C35.5273 13.2536 35.4943 13.2096 35.4723 13.1564L35.2028 12.3946H33.6133L33.3438 13.1564C33.3255 13.2022 33.2934 13.2444 33.2475 13.2829C33.2017 13.3196 33.144 13.3379 33.0743 13.3379H32.428L33.9873 9.34764H34.8315L36.388 13.3379ZM41.1574 9.34764V13.3379H40.4286V10.8876C40.4286 10.8363 40.4295 10.7813 40.4314 10.7226C40.435 10.664 40.4405 10.6044 40.4479 10.5439L39.3066 12.7081C39.2443 12.8273 39.148 12.8869 39.0179 12.8869H38.9024C38.8382 12.8869 38.7814 12.8722 38.7319 12.8429C38.6824 12.8117 38.6429 12.7668 38.6136 12.7081L37.4669 10.5356C37.4724 10.5998 37.4769 10.6621 37.4806 10.7226C37.4843 10.7813 37.4861 10.8363 37.4861 10.8876V13.3379H36.7574V9.34764H37.3844C37.4192 9.34764 37.4504 9.34856 37.4779 9.35039C37.5054 9.35222 37.5292 9.35772 37.5494 9.36689C37.5714 9.37422 37.5906 9.38706 37.6071 9.40539C37.6254 9.42189 37.6429 9.44572 37.6594 9.47689L38.7759 11.6054C38.8107 11.6696 38.8428 11.7356 38.8721 11.8034C38.9033 11.8712 38.9326 11.9409 38.9601 12.0124C38.9876 11.9391 39.016 11.8676 39.0454 11.7979C39.0765 11.7282 39.1095 11.6613 39.1444 11.5971L40.2526 9.47689C40.2691 9.44572 40.2865 9.42189 40.3049 9.40539C40.3232 9.38706 40.3424 9.37422 40.3626 9.36689C40.3846 9.35772 40.4084 9.35222 40.4341 9.35039C40.4616 9.34856 40.4937 9.34764 40.5304 9.34764H41.1574ZM42.4893 9.34764V10.1369L42.4233 10.5686C42.4086 10.6566 42.3821 10.7245 42.3436 10.7721C42.3069 10.8198 42.2455 10.8436 42.1593 10.8436C42.0841 10.8436 42.0264 10.8198 41.9861 10.7721C41.9457 10.7245 41.9164 10.6566 41.8981 10.5686L41.8293 10.1369V9.34764H42.4893ZM45.3319 10.1121C45.3063 10.1543 45.2797 10.1855 45.2522 10.2056C45.2265 10.224 45.1926 10.2331 45.1504 10.2331C45.1101 10.2331 45.0661 10.2194 45.0184 10.1919C44.9726 10.1626 44.9185 10.1314 44.8562 10.0984C44.7939 10.0654 44.7224 10.0351 44.6417 10.0076C44.561 9.97831 44.4666 9.96364 44.3584 9.96364C44.1678 9.96364 44.0248 10.0067 43.9294 10.0929C43.8341 10.1772 43.7864 10.2881 43.7864 10.4256C43.7864 10.5136 43.8121 10.587 43.8634 10.6456C43.9166 10.7025 43.9854 10.752 44.0697 10.7941C44.1559 10.8363 44.253 10.8739 44.3612 10.9069C44.4694 10.9399 44.5803 10.9766 44.6939 11.0169C44.8076 11.0554 44.9185 11.1012 45.0267 11.1544C45.1349 11.2076 45.2311 11.2745 45.3154 11.3551C45.4016 11.4358 45.4704 11.5348 45.5217 11.6521C45.5749 11.7676 45.6014 11.9088 45.6014 12.0756C45.6014 12.2571 45.5694 12.4276 45.5052 12.5871C45.4429 12.7448 45.3521 12.8832 45.2329 13.0024C45.1138 13.1197 44.9662 13.2123 44.7902 13.2801C44.616 13.348 44.418 13.3819 44.1962 13.3819C44.0697 13.3819 43.9432 13.3691 43.8167 13.3434C43.692 13.3177 43.571 13.282 43.4537 13.2361C43.3382 13.1903 43.2291 13.1353 43.1264 13.0711C43.0238 13.007 42.9339 12.9355 42.8569 12.8566L43.0989 12.4661C43.1191 12.4368 43.1457 12.413 43.1787 12.3946C43.2117 12.3745 43.2465 12.3644 43.2832 12.3644C43.3327 12.3644 43.3849 12.3827 43.4399 12.4194C43.4949 12.4561 43.5582 12.4964 43.6297 12.5404C43.7012 12.5844 43.7837 12.6247 43.8772 12.6614C43.9725 12.6981 44.0862 12.7164 44.2182 12.7164C44.4107 12.7164 44.5592 12.6724 44.6637 12.5844C44.77 12.4964 44.8232 12.3653 44.8232 12.1911C44.8232 12.0903 44.7966 12.0087 44.7434 11.9464C44.6921 11.8841 44.6243 11.8318 44.5399 11.7896C44.4556 11.7475 44.3594 11.7117 44.2512 11.6824C44.143 11.6512 44.0321 11.6173 43.9184 11.5806C43.8048 11.544 43.6939 11.5 43.5857 11.4486C43.4775 11.3973 43.3813 11.3295 43.2969 11.2451C43.2126 11.1608 43.1439 11.0563 43.0907 10.9316C43.0394 10.807 43.0137 10.6521 43.0137 10.4669C43.0137 10.3184 43.043 10.1745 43.1017 10.0351C43.1604 9.89581 43.2465 9.77206 43.3602 9.66389C43.4739 9.55572 43.6132 9.46864 43.7782 9.40264C43.945 9.33664 44.1357 9.30364 44.3502 9.30364C44.5904 9.30364 44.8122 9.34122 45.0157 9.41639C45.221 9.48972 45.3943 9.59239 45.5354 9.72439L45.3319 10.1121ZM26.908 15.9059V16.7079H27.952V17.1799H26.908V18.3379H26.304V15.4359H28.152V15.9059H26.908ZM29.8633 17.2359L29.5493 16.3479C29.5307 16.3012 29.5107 16.2466 29.4893 16.1839C29.4693 16.1212 29.45 16.0532 29.4313 15.9799C29.4127 16.0546 29.3927 16.1239 29.3713 16.1879C29.3513 16.2506 29.332 16.3052 29.3133 16.3519L29.0013 17.2359H29.8633ZM30.8713 18.3379H30.4053C30.3533 18.3379 30.3107 18.3259 30.2773 18.3019C30.2453 18.2766 30.2213 18.2446 30.2053 18.2059L30.0093 17.6519H28.8533L28.6573 18.2059C28.644 18.2392 28.6207 18.2699 28.5873 18.2979C28.554 18.3246 28.512 18.3379 28.4613 18.3379H27.9913L29.1253 15.4359H29.7393L30.8713 18.3379ZM33.4456 15.4359L32.2776 18.3379H31.7336L30.5656 15.4359H31.0496C31.1016 15.4359 31.1436 15.4486 31.1756 15.4739C31.2089 15.4979 31.2336 15.5292 31.2496 15.5679L31.8776 17.2399C31.9016 17.3026 31.9249 17.3712 31.9476 17.4459C31.9716 17.5192 31.9936 17.5966 32.0136 17.6779C32.0309 17.5966 32.0496 17.5192 32.0696 17.4459C32.0909 17.3712 32.1136 17.3026 32.1376 17.2399L32.7616 15.5679C32.7749 15.5346 32.7982 15.5046 32.8316 15.4779C32.8662 15.4499 32.9089 15.4359 32.9596 15.4359H33.4456ZM36.4166 16.8859C36.4166 17.0979 36.3806 17.2946 36.3086 17.4759C36.2379 17.6572 36.1373 17.8139 36.0066 17.9459C35.8773 18.0779 35.7213 18.1819 35.5386 18.2579C35.3559 18.3326 35.1533 18.3699 34.9306 18.3699C34.7079 18.3699 34.5053 18.3326 34.3226 18.2579C34.1399 18.1819 33.9833 18.0779 33.8526 17.9459C33.7219 17.8139 33.6206 17.6572 33.5486 17.4759C33.4779 17.2946 33.4426 17.0979 33.4426 16.8859C33.4426 16.6739 33.4779 16.4779 33.5486 16.2979C33.6206 16.1166 33.7219 15.9599 33.8526 15.8279C33.9833 15.6959 34.1399 15.5926 34.3226 15.5179C34.5053 15.4419 34.7079 15.4039 34.9306 15.4039C35.1533 15.4039 35.3559 15.4419 35.5386 15.5179C35.7213 15.5926 35.8773 15.6966 36.0066 15.8299C36.1373 15.9619 36.2379 16.1186 36.3086 16.2999C36.3806 16.4799 36.4166 16.6752 36.4166 16.8859ZM35.8026 16.8859C35.8026 16.7339 35.7826 16.5979 35.7426 16.4779C35.7026 16.3566 35.6446 16.2539 35.5686 16.1699C35.4939 16.0846 35.4026 16.0199 35.2946 15.9759C35.1879 15.9306 35.0666 15.9079 34.9306 15.9079C34.7946 15.9079 34.6726 15.9306 34.5646 15.9759C34.4566 16.0199 34.3646 16.0846 34.2886 16.1699C34.2139 16.2539 34.1566 16.3566 34.1166 16.4779C34.0766 16.5979 34.0566 16.7339 34.0566 16.8859C34.0566 17.0392 34.0766 17.1766 34.1166 17.2979C34.1566 17.4179 34.2139 17.5199 34.2886 17.6039C34.3646 17.6879 34.4566 17.7526 34.5646 17.7979C34.6726 17.8419 34.7946 17.8639 34.9306 17.8639C35.0666 17.8639 35.1879 17.8419 35.2946 17.7979C35.4026 17.7526 35.4939 17.6879 35.5686 17.6039C35.6446 17.5199 35.7026 17.4179 35.7426 17.2979C35.7826 17.1766 35.8026 17.0392 35.8026 16.8859ZM37.7628 16.8099C37.8601 16.8099 37.9441 16.7979 38.0148 16.7739C38.0854 16.7486 38.1434 16.7146 38.1888 16.6719C38.2341 16.6279 38.2674 16.5766 38.2888 16.5179C38.3101 16.4592 38.3208 16.3952 38.3208 16.3259C38.3208 16.1886 38.2748 16.0819 38.1828 16.0059C38.0921 15.9299 37.9534 15.8919 37.7668 15.8919H37.4548V16.8099H37.7628ZM39.1688 18.3379H38.6268C38.5254 18.3379 38.4521 18.2992 38.4068 18.2219L37.8548 17.3319C37.8321 17.2972 37.8068 17.2719 37.7788 17.2559C37.7521 17.2399 37.7121 17.2319 37.6588 17.2319H37.4548V18.3379H36.8548V15.4359H37.7668C37.9694 15.4359 38.1428 15.4572 38.2868 15.4999C38.4308 15.5412 38.5488 15.5992 38.6408 15.6739C38.7328 15.7486 38.8001 15.8379 38.8428 15.9419C38.8854 16.0446 38.9068 16.1579 38.9068 16.2819C38.9068 16.3779 38.8928 16.4692 38.8648 16.5559C38.8381 16.6412 38.7988 16.7192 38.7468 16.7899C38.6948 16.8606 38.6308 16.9232 38.5548 16.9779C38.4788 17.0326 38.3921 17.0766 38.2948 17.1099C38.3334 17.1312 38.3694 17.1572 38.4028 17.1879C38.4361 17.2172 38.4661 17.2526 38.4928 17.2939L39.1688 18.3379ZM40.0564 18.3379H39.4524V15.4359H40.0564V18.3379ZM42.7174 15.9199H41.8694V18.3379H41.2674V15.9199H40.4194V15.4359H42.7174V15.9199ZM43.6814 15.9059V16.6519H44.6494V17.1059H43.6814V17.8679H44.9254V18.3379H43.0774V15.4359H44.9254V15.9059H43.6814Z" fill="white"/>
<path fill-rule="evenodd" clip-rule="evenodd" d="M18.0111 7.43788V10.2379H21.973C22.176 10.2356 22.377 10.2774 22.5621 10.3605C22.7473 10.4436 22.9122 10.566 23.0453 10.7191C23.1785 10.8723 23.2768 11.0525 23.3334 11.2474C23.3899 11.4423 23.4035 11.6472 23.373 11.8478L22.407 18.1478C22.3564 18.4816 22.1868 18.7859 21.9296 19.0046C21.6723 19.2233 21.3447 19.3416 21.007 19.3378H14.1112L14.1112 9.38764L15.9111 5.33789C16.468 5.33789 17.0022 5.55914 17.396 5.95296C17.7898 6.34679 18.0111 6.88093 18.0111 7.43788ZM12.1112 19.3378H11.0111C10.6398 19.3378 10.2837 19.1903 10.0212 18.9278C9.75861 18.6652 9.61111 18.3091 9.61111 17.9378V13.0378C9.61111 12.6665 9.75861 12.3104 10.0212 12.0479C10.2837 11.7853 10.6398 11.6379 11.0111 11.6379H12.1112L12.1112 19.3378Z" fill="white"/>
</svg>
