<svg width="15" height="18" viewBox="0 0 15 18" fill="none" xmlns="http://www.w3.org/2000/svg">
<path fill-rule="evenodd" clip-rule="evenodd" d="M7.49979 1.75024C6.22892 1.75024 5.05273 2.93926 5.05273 4.59693C5.05273 6.2546 6.22892 7.44362 7.49979 7.44362C8.77065 7.44362 9.94684 6.2546 9.94684 4.59693C9.94684 2.93926 8.77065 1.75024 7.49979 1.75024ZM3.55273 4.59693C3.55273 2.28181 5.23929 0.250244 7.49979 0.250244C9.76029 0.250244 11.4468 2.28181 11.4468 4.59693C11.4468 6.91205 9.76029 8.94362 7.49979 8.94362C5.23929 8.94362 3.55273 6.91205 3.55273 4.59693Z" fill="#17181A"/>
<path fill-rule="evenodd" clip-rule="evenodd" d="M2.19835 13.8149C1.93859 14.1458 1.85596 14.4113 1.85596 14.5881C1.85596 15.1367 2.00642 15.3857 2.16045 15.526C2.34244 15.6918 2.65971 15.8249 3.19714 15.892C3.72814 15.9584 4.37138 15.9494 5.12101 15.9181C5.29761 15.9108 5.48021 15.9022 5.6672 15.8934C6.25155 15.8658 6.87879 15.8363 7.50007 15.8363C8.12135 15.8363 8.74858 15.8658 9.33293 15.8934C9.51992 15.9022 9.70252 15.9108 9.87913 15.9181C10.6288 15.9494 11.272 15.9584 11.803 15.892C12.3404 15.8249 12.6577 15.6918 12.8397 15.526C12.9937 15.3857 13.1442 15.1367 13.1442 14.5881C13.1442 14.4113 13.0615 14.1458 12.8018 13.8149C12.5463 13.4895 12.1532 13.1464 11.6334 12.8322C10.5944 12.2042 9.13015 11.7415 7.50007 11.7415C5.86998 11.7415 4.40578 12.2042 3.36669 12.8322C2.84692 13.1464 2.45382 13.4895 2.19835 13.8149ZM2.5908 11.5485C3.86593 10.7778 5.59878 10.2415 7.50007 10.2415C9.40135 10.2415 11.1342 10.7778 12.4093 11.5485C13.0467 11.9337 13.59 12.3898 13.9816 12.8886C14.369 13.382 14.6442 13.9657 14.6442 14.5881C14.6442 15.4383 14.395 16.1384 13.8497 16.635C13.3323 17.1062 12.6505 17.2978 11.989 17.3805C11.3211 17.4639 10.5657 17.448 9.81668 17.4168C9.62294 17.4088 9.42933 17.3996 9.23566 17.3905C8.65947 17.3634 8.08267 17.3363 7.50007 17.3363C6.91746 17.3363 6.34067 17.3634 5.76447 17.3905C5.5708 17.3996 5.37719 17.4088 5.18345 17.4168C4.43446 17.448 3.67899 17.4639 3.01109 17.3805C2.34963 17.2978 1.66782 17.1062 1.15045 16.635C0.60513 16.1384 0.355957 15.4383 0.355957 14.5881C0.355957 13.9657 0.63117 13.382 1.01853 12.8886C1.41018 12.3898 1.95347 11.9337 2.5908 11.5485Z" fill="#17181A"/>
</svg>
