<svg width="17" height="16" viewBox="0 0 17 16" fill="none" xmlns="http://www.w3.org/2000/svg">
<path fill-rule="evenodd" clip-rule="evenodd" d="M8.5 1.75C5.04822 1.75 2.25 4.54822 2.25 8C2.25 11.4518 5.04822 14.25 8.5 14.25C11.9518 14.25 14.75 11.4518 14.75 8C14.75 4.54822 11.9518 1.75 8.5 1.75ZM0.75 8C0.75 3.71979 4.21979 0.25 8.5 0.25C12.7802 0.25 16.25 3.71979 16.25 8C16.25 12.2802 12.7802 15.75 8.5 15.75C4.21979 15.75 0.75 12.2802 0.75 8Z" fill="#17181A"/>
<path fill-rule="evenodd" clip-rule="evenodd" d="M0.75 8C0.75 7.58579 1.08579 7.25002 1.5 7.25002H15.5C15.9142 7.25002 16.25 7.58579 16.25 8C16.25 8.41421 15.9142 8.75002 15.5 8.75002H1.5C1.08579 8.75002 0.75 8.41421 0.75 8Z" fill="#17181A"/>
<path fill-rule="evenodd" clip-rule="evenodd" d="M6.45017 8C6.49765 10.1195 7.21979 12.1609 8.5 13.8326C9.7802 12.1609 10.5023 10.1195 10.5498 8C10.5023 5.88046 9.7802 3.83911 8.5 2.16745C7.21979 3.83911 6.49765 5.88046 6.45017 8ZM8.5 1L7.94624 0.494183C6.07273 2.54526 5.00802 5.20704 4.95016 7.98438C4.94994 7.99479 4.94994 8.00521 4.95016 8.01562C5.00802 10.793 6.07273 13.4547 7.94624 15.5058C8.08833 15.6614 8.28931 15.75 8.5 15.75C8.71069 15.75 8.91166 15.6614 9.05376 15.5058C10.9273 13.4547 11.992 10.793 12.0498 8.01562C12.0501 8.00521 12.0501 7.99479 12.0498 7.98438C11.992 5.20704 10.9273 2.54526 9.05376 0.494183L8.5 1Z" fill="#17181A"/>
</svg>
